<svg width="30" height="30" viewBox="0 0 30 30" fill="none" xmlns="http://www.w3.org/2000/svg">
<g clip-path="url(#clip0_10_14)">
<path d="M25 0H5C2.23858 0 0 2.23858 0 5V25C0 27.7614 2.23858 30 5 30H25C27.7614 30 30 27.7614 30 25V5C30 2.23858 27.7614 0 25 0Z" fill="url(#paint0_linear_10_14)"/>
<path d="M20.595 18.587H9.81799C9.70835 18.5875 9.60335 18.6313 9.52583 18.7088C9.4483 18.7863 9.40451 18.8913 9.40399 19.001V19.83C9.40451 19.9396 9.4483 20.0446 9.52583 20.1221C9.60335 20.1997 9.70835 20.2435 9.81799 20.244H20.595C20.7046 20.2435 20.8096 20.1997 20.8871 20.1221C20.9647 20.0446 21.0085 19.9396 21.009 19.83V19.001C21.0085 18.8913 20.9647 18.7863 20.8871 18.7088C20.8096 18.6313 20.7046 18.5875 20.595 18.587ZM22.253 10.298C21.9234 10.2982 21.6074 10.4293 21.3743 10.6623C21.1413 10.8954 21.0103 11.2114 21.01 11.541C21.0102 11.7182 21.0491 11.8933 21.124 12.054L19.248 13.187C19.1534 13.2437 19.0485 13.2809 18.9394 13.2965C18.8302 13.3121 18.719 13.3057 18.6124 13.2778C18.5057 13.2498 18.4057 13.2009 18.3183 13.1338C18.2308 13.0667 18.1576 12.9828 18.103 12.887L15.992 9.18698C16.191 9.0249 16.3349 8.80521 16.404 8.55806C16.4732 8.31091 16.4641 8.04842 16.3781 7.80663C16.2921 7.56484 16.1333 7.35559 15.9237 7.20763C15.714 7.05966 15.4636 6.98022 15.207 6.98022C14.9503 6.98022 14.7 7.05966 14.4903 7.20763C14.2806 7.35559 14.1219 7.56484 14.0359 7.80663C13.9499 8.04842 13.9408 8.31091 14.0099 8.55806C14.0791 8.80521 14.223 9.0249 14.422 9.18698L12.311 12.887C12.2564 12.9828 12.1832 13.0667 12.0957 13.1338C12.0082 13.2009 11.9082 13.2498 11.8016 13.2778C11.6949 13.3057 11.5838 13.3121 11.4746 13.2965C11.3655 13.2809 11.2605 13.2437 11.166 13.187L9.29299 12.059C9.40376 11.8145 9.43243 11.5407 9.37468 11.2786C9.31694 11.0164 9.1759 10.7801 8.97264 10.6047C8.76939 10.4294 8.51485 10.3246 8.24708 10.306C7.97932 10.2873 7.71271 10.3559 7.48713 10.5014C7.26155 10.6468 7.08913 10.8614 6.99563 11.113C6.90213 11.3646 6.8926 11.6397 6.96844 11.8972C7.04428 12.1547 7.20143 12.3807 7.41639 12.5414C7.63135 12.7022 7.89257 12.789 8.16099 12.789C8.2281 12.7873 8.29498 12.7803 8.36099 12.768L10.234 17.762H20.181L22.054 12.768C22.12 12.7803 22.1869 12.7873 22.254 12.789C22.5838 12.789 22.9001 12.658 23.1333 12.4248C23.3665 12.1916 23.4975 11.8753 23.4975 11.5455C23.4975 11.2157 23.3665 10.8994 23.1333 10.6662C22.9001 10.433 22.5838 10.302 22.254 10.302L22.253 10.298Z" fill="white"/>
</g>
<defs>
<linearGradient id="paint0_linear_10_14" x1="2.85" y1="2.88" x2="25.11" y2="26.25" gradientUnits="userSpaceOnUse">
<stop stop-color="#CB901C"/>
<stop offset="1" stop-color="#72551B"/>
</linearGradient>
<clipPath id="clip0_10_14">
<rect width="30" height="30" fill="white"/>
</clipPath>
</defs>
</svg>
