<svg width="30" height="30" viewBox="0 0 30 30" fill="none" xmlns="http://www.w3.org/2000/svg">
<g clip-path="url(#clip0_1_138)">
<path d="M26.25 0H3.75C1.67893 0 0 1.67893 0 3.75V26.25C0 28.3211 1.67893 30 3.75 30H26.25C28.3211 30 30 28.3211 30 26.25V3.75C30 1.67893 28.3211 0 26.25 0Z" fill="url(#paint0_linear_1_138)"/>
<path d="M21.9733 13.7155L16.0056 7.56549C15.8754 7.43431 15.7197 7.33111 15.5482 7.26224C15.3766 7.19337 15.1928 7.16028 15.0081 7.16499H14.9901C14.8053 7.16028 14.6215 7.19337 14.45 7.26224C14.2784 7.33111 14.1228 7.43431 13.9926 7.56549L8.02482 13.7155C7.89309 13.8387 7.78807 13.9876 7.71627 14.1531C7.64447 14.3186 7.60742 14.497 7.60742 14.6774C7.60742 14.8577 7.64447 15.0362 7.71627 15.2016C7.78807 15.3671 7.89309 15.516 8.02482 15.6392C8.29773 15.8946 8.65754 16.0367 9.03132 16.0367C9.4051 16.0367 9.76491 15.8946 10.0378 15.6392L13.5733 11.9455V21.4705C13.5733 21.8484 13.7235 22.2109 13.9907 22.4781C14.2579 22.7454 14.6204 22.8955 14.9983 22.8955C15.3763 22.8955 15.7387 22.7454 16.0059 22.4781C16.2732 22.2109 16.4233 21.8484 16.4233 21.4705V11.9455L19.9596 15.6392C20.2325 15.8946 20.5923 16.0367 20.9661 16.0367C21.3399 16.0367 21.6997 15.8946 21.9726 15.6392C22.1043 15.5161 22.2094 15.3672 22.2813 15.2018C22.3532 15.0363 22.3903 14.8579 22.3903 14.6775C22.3904 14.4972 22.3534 14.3187 22.2817 14.1532C22.21 13.9877 22.105 13.8387 21.9733 13.7155Z" fill="white"/>
</g>
<defs>
<linearGradient id="paint0_linear_1_138" x1="4.86" y1="2.01" x2="25.35" y2="26.04" gradientUnits="userSpaceOnUse">
<stop stop-color="#1F8EFA"/>
<stop offset="1" stop-color="#101E97"/>
</linearGradient>
<clipPath id="clip0_1_138">
<rect width="30" height="30" fill="white"/>
</clipPath>
</defs>
</svg>
