<svg width="30" height="30" viewBox="0 0 30 30" fill="none" xmlns="http://www.w3.org/2000/svg">
<g clip-path="url(#clip0_1_141)">
<path d="M26.25 0H3.75C1.67893 0 0 1.67893 0 3.75V26.25C0 28.3211 1.67893 30 3.75 30H26.25C28.3211 30 30 28.3211 30 26.25V3.75C30 1.67893 28.3211 0 26.25 0Z" fill="url(#paint0_linear_1_141)"/>
<path d="M22.2701 20.8142C21.9844 19.5512 20.3516 18.9392 19.7884 18.7375C19.1067 18.5658 18.4159 18.4331 17.7191 18.34C17.3678 18.2767 17.0385 18.1249 16.7621 17.899C16.6642 17.251 16.6428 16.5937 16.6984 15.9407C16.8719 15.6664 17.0224 15.3781 17.1484 15.079C17.2943 14.5855 17.4058 14.0826 17.4821 13.5737C17.4821 13.5737 17.8076 13.5737 17.9231 13.0015C18.0747 12.5715 18.1734 12.1247 18.2171 11.671C18.1931 11.2142 17.9434 11.2262 17.9434 11.2262C18.1336 10.5643 18.2246 9.87783 18.2134 9.18922C18.2509 7.55797 16.9721 5.94922 14.6569 5.94922C12.3101 5.94922 11.0569 7.55797 11.0944 9.18997C11.0862 9.87815 11.1758 10.564 11.3606 11.227C11.3606 11.227 11.1101 11.215 11.0869 11.6717C11.1299 12.1244 11.2276 12.5701 11.3779 12.9992C11.4889 13.5715 11.8189 13.5715 11.8189 13.5715C11.8951 14.0803 12.0067 14.5833 12.1526 15.0767C12.2786 15.3759 12.4291 15.6641 12.6026 15.9385C12.6582 16.5915 12.6368 17.2487 12.5389 17.8967C12.2625 18.1227 11.9332 18.2744 11.5819 18.3377C10.8851 18.4308 10.1943 18.5635 9.51262 18.7352C8.94862 18.934 7.31662 19.5497 7.03087 20.812C7.02059 20.8586 7.02098 20.907 7.03201 20.9535C7.04303 21 7.06441 21.0433 7.09455 21.0804C7.12469 21.1175 7.16281 21.1472 7.20607 21.1675C7.24933 21.1878 7.2966 21.198 7.34437 21.1975H21.9604C22.0076 21.1975 22.0543 21.187 22.097 21.1667C22.1396 21.1463 22.1772 21.1167 22.2069 21.0799C22.2366 21.0432 22.2577 21.0002 22.2686 20.9542C22.2796 20.9083 22.2801 20.8604 22.2701 20.8142Z" fill="white"/>
<path d="M19.8423 17.5314L17.7483 15.4374C17.6881 15.3769 17.6543 15.2951 17.6543 15.2098C17.6543 15.1244 17.6881 15.0426 17.7483 14.9821L18.2036 14.5269C18.264 14.4667 18.3459 14.4328 18.4312 14.4328C18.5165 14.4328 18.5984 14.4667 18.6588 14.5269L20.0703 15.9361L23.0913 12.9129C23.1518 12.8527 23.2336 12.8188 23.319 12.8188C23.4043 12.8188 23.4861 12.8527 23.5466 12.9129L24.0018 13.3681C24.0621 13.4286 24.0959 13.5104 24.0959 13.5958C24.0959 13.6811 24.0621 13.7629 24.0018 13.8234L20.2968 17.5284C20.2368 17.5888 20.1554 17.623 20.0702 17.6236C19.9851 17.6241 19.9031 17.591 19.8423 17.5314Z" fill="white"/>
</g>
<defs>
<linearGradient id="paint0_linear_1_141" x1="4.86" y1="2.01" x2="25.35" y2="26.04" gradientUnits="userSpaceOnUse">
<stop stop-color="#6DEC8D"/>
<stop offset="1" stop-color="#146E2D"/>
</linearGradient>
<clipPath id="clip0_1_141">
<rect width="30" height="30" fill="white"/>
</clipPath>
</defs>
</svg>
