<svg width="30" height="30" viewBox="0 0 30 30" fill="none" xmlns="http://www.w3.org/2000/svg">
<g clip-path="url(#clip0_10_11)">
<path d="M5 0H25C26.3261 0 27.5979 0.526784 28.5355 1.46447C29.4732 2.40215 30 3.67392 30 5V25C30 26.3261 29.4732 27.5979 28.5355 28.5355C27.5979 29.4732 26.3261 30 25 30H5C3.67392 30 2.40215 29.4732 1.46447 28.5355C0.526784 27.5979 0 26.3261 0 25L0 5C0 3.67392 0.526784 2.40215 1.46447 1.46447C2.40215 0.526784 3.67392 0 5 0Z" fill="#75155B"/>
<path d="M8.49999 20.571C8.49986 20.693 8.5238 20.8139 8.57044 20.9267C8.61708 21.0394 8.68551 21.1419 8.7718 21.2282C8.85809 21.3145 8.96055 21.3829 9.07332 21.4296C9.18609 21.4762 9.30696 21.5001 9.42899 21.5H14.071V16.857H8.49999V20.571ZM15.929 21.5H20.571C20.693 21.5001 20.8139 21.4762 20.9267 21.4296C21.0394 21.3829 21.1419 21.3145 21.2282 21.2282C21.3145 21.1419 21.3829 21.0394 21.4295 20.9267C21.4762 20.8139 21.5001 20.693 21.5 20.571V16.857H15.928L15.929 21.5ZM21.5 12.214H20.278C20.4676 11.8551 20.5681 11.4559 20.571 11.05C20.5691 10.3736 20.2993 9.72544 19.8207 9.24751C19.342 8.76958 18.6934 8.50079 18.017 8.5C16.81 8.5 16.029 9.118 15.028 10.482C14.028 9.118 13.246 8.5 12.039 8.5C11.3627 8.50106 10.7144 8.76996 10.236 9.24786C9.75751 9.72577 9.48784 10.3737 9.48599 11.05C9.48817 11.455 9.58872 11.8534 9.77899 12.211H8.49999C8.3777 12.2109 8.2566 12.2349 8.14363 12.2817C8.03066 12.3286 7.92806 12.3973 7.84173 12.4839C7.7554 12.5705 7.68704 12.6733 7.64058 12.7864C7.59411 12.8995 7.57047 13.0207 7.57099 13.143V15.464C7.57152 15.5869 7.62057 15.7046 7.70748 15.7915C7.79438 15.8784 7.91209 15.9275 8.03499 15.928H21.964C22.0869 15.9275 22.2046 15.8784 22.2915 15.7915C22.3784 15.7046 22.4275 15.5869 22.428 15.464V13.143C22.4281 13.021 22.4042 12.9003 22.3576 12.7876C22.3111 12.6749 22.2427 12.5724 22.1565 12.4862C22.0704 12.3999 21.968 12.3314 21.8554 12.2847C21.7427 12.238 21.6219 12.214 21.5 12.214ZM12.037 12.214C11.7351 12.2051 11.4486 12.079 11.2382 11.8623C11.0278 11.6456 10.9101 11.3555 10.9101 11.0535C10.9101 10.7515 11.0278 10.4614 11.2382 10.2447C11.4486 10.028 11.7351 9.90186 12.037 9.893C12.614 9.893 13.037 9.993 14.537 12.214H12.037ZM18.018 12.214H15.518C17.01 9.994 17.424 9.893 18.018 9.893C18.1733 9.88844 18.3279 9.91509 18.4726 9.97136C18.6174 10.0276 18.7494 10.1124 18.8609 10.2206C18.9723 10.3288 19.0609 10.4583 19.1214 10.6013C19.1819 10.7444 19.2131 10.8982 19.2131 11.0535C19.2131 11.2088 19.1819 11.3626 19.1214 11.5057C19.0609 11.6487 18.9723 11.7782 18.8609 11.8864C18.7494 11.9946 18.6174 12.0794 18.4726 12.1356C18.3279 12.1919 18.1733 12.2186 18.018 12.214Z" fill="white"/>
</g>
<defs>
<clipPath id="clip0_10_11">
<rect width="30" height="30" fill="white"/>
</clipPath>
</defs>
</svg>
