<svg width="30" height="30" viewBox="0 0 30 30" fill="none" xmlns="http://www.w3.org/2000/svg">
<g clip-path="url(#clip0_10_2)">
<path d="M25 0H5C2.23858 0 0 2.23858 0 5V25C0 27.7614 2.23858 30 5 30H25C27.7614 30 30 27.7614 30 25V5C30 2.23858 27.7614 0 25 0Z" fill="url(#paint0_linear_10_2)"/>
<path d="M12.1932 20.1591C11.3902 20.1591 10.6742 20.0114 10.0455 19.7159C9.42045 19.4205 8.92424 19.0133 8.55682 18.4943C8.18939 17.9754 7.99811 17.3807 7.98295 16.7102H10.3693C10.3958 17.161 10.5852 17.5265 10.9375 17.8068C11.2898 18.0871 11.7083 18.2273 12.1932 18.2273C12.5795 18.2273 12.9205 18.142 13.2159 17.9716C13.5152 17.7973 13.7481 17.5568 13.9148 17.25C14.0852 16.9394 14.1705 16.5833 14.1705 16.1818C14.1705 15.7727 14.0833 15.4129 13.9091 15.1023C13.7386 14.7917 13.5019 14.5492 13.1989 14.375C12.8958 14.2008 12.5492 14.1117 12.1591 14.108C11.8182 14.108 11.4867 14.178 11.1648 14.3182C10.8466 14.4583 10.5985 14.6496 10.4205 14.892L8.23295 14.5L8.78409 8.36364H15.8977V10.375H10.8125L10.5114 13.2898H10.5795C10.7841 13.0019 11.0928 12.7633 11.5057 12.5739C11.9186 12.3845 12.3807 12.2898 12.892 12.2898C13.5928 12.2898 14.2178 12.4545 14.767 12.7841C15.3163 13.1136 15.75 13.5663 16.0682 14.142C16.3864 14.714 16.5436 15.3731 16.5398 16.1193C16.5436 16.9034 16.3617 17.6004 15.9943 18.2102C15.6307 18.8163 15.1212 19.2936 14.4659 19.642C13.8144 19.9867 13.0568 20.1591 12.1932 20.1591Z" fill="white"/>
<path d="M19.8679 15.5455L20.8693 17.4524L21.8956 15.5455H23.4474L21.8672 18.2727L23.4901 21H21.9453L20.8693 19.1143L19.8111 21H18.2486L19.8679 18.2727L18.3054 15.5455H19.8679Z" fill="white"/>
</g>
<defs>
<linearGradient id="paint0_linear_10_2" x1="5.52" y1="4.77" x2="26.37" y2="26.49" gradientUnits="userSpaceOnUse">
<stop stop-color="#0972D6"/>
<stop offset="1" stop-color="#154675"/>
</linearGradient>
<clipPath id="clip0_10_2">
<rect width="30" height="30" fill="white"/>
</clipPath>
</defs>
</svg>
