<svg width="30" height="30" viewBox="0 0 30 30" fill="none" xmlns="http://www.w3.org/2000/svg">
<g clip-path="url(#clip0_10_22)">
<path d="M5 0H25C26.3261 0 27.5979 0.526784 28.5355 1.46447C29.4732 2.40215 30 3.67392 30 5V25C30 26.3261 29.4732 27.5979 28.5355 28.5355C27.5979 29.4732 26.3261 30 25 30H5C3.67392 30 2.40215 29.4732 1.46447 28.5355C0.526784 27.5979 0 26.3261 0 25L0 5C0 3.67392 0.526784 2.40215 1.46447 1.46447C2.40215 0.526784 3.67392 0 5 0Z" fill="url(#paint0_linear_10_22)"/>
<path d="M8.30099 20.742C8.30086 20.8677 8.32553 20.9922 8.37357 21.1084C8.42162 21.2246 8.49211 21.3301 8.581 21.419C8.66989 21.5079 8.77544 21.5784 8.89161 21.6264C9.00778 21.6745 9.13228 21.6992 9.25799 21.699H14.044V16.914H8.30099V20.742ZM15.957 21.699H20.744C20.8697 21.6992 20.9942 21.6745 21.1104 21.6264C21.2265 21.5784 21.3321 21.5079 21.421 21.419C21.5099 21.3301 21.5804 21.2246 21.6284 21.1084C21.6765 20.9922 21.7011 20.8677 21.701 20.742V16.914H15.957V21.699ZM21.699 12.129H20.444C20.6388 11.7589 20.7417 11.3473 20.744 10.929C20.7419 10.2316 20.4635 9.56353 19.9698 9.07097C19.4761 8.57841 18.8074 8.30155 18.11 8.30103C16.866 8.30103 16.061 8.93803 15.03 10.344C13.998 8.93803 13.194 8.30103 11.95 8.30103C11.2523 8.30208 10.5834 8.57972 10.0901 9.07309C9.59669 9.56646 9.31905 10.2353 9.31799 10.933C9.31885 11.3515 9.42183 11.7634 9.61799 12.133H8.30099C8.04779 12.1328 7.80483 12.233 7.62541 12.4116C7.446 12.5903 7.34479 12.8328 7.34399 13.086V15.479C7.34426 15.606 7.39481 15.7277 7.48458 15.8174C7.57435 15.9072 7.69604 15.9578 7.82299 15.958H22.178C22.305 15.9578 22.4266 15.9072 22.5164 15.8174C22.6062 15.7277 22.6567 15.606 22.657 15.479V13.086C22.6571 12.9602 22.6324 12.8356 22.5843 12.7194C22.5362 12.6032 22.4656 12.4976 22.3766 12.4087C22.2876 12.3198 22.182 12.2493 22.0657 12.2013C21.9494 12.1533 21.8248 12.1288 21.699 12.129ZM11.946 12.129C11.6445 12.1059 11.3628 11.9699 11.1573 11.748C10.9518 11.5262 10.8376 11.2349 10.8376 10.9325C10.8376 10.6301 10.9518 10.3389 11.1573 10.117C11.3628 9.89518 11.6445 9.75911 11.946 9.73603C12.546 9.73603 12.981 9.83603 14.521 12.129H11.944H11.946ZM18.11 12.129H15.535C17.072 9.84103 17.5 9.73603 18.11 9.73603C18.4115 9.75911 18.6932 9.89518 18.8987 10.117C19.1042 10.3389 19.2184 10.6301 19.2184 10.9325C19.2184 11.2349 19.1042 11.5262 18.8987 11.748C18.6932 11.9699 18.4115 12.1059 18.11 12.129Z" fill="white"/>
</g>
<defs>
<linearGradient id="paint0_linear_10_22" x1="3.36" y1="1.38" x2="26.82" y2="26.55" gradientUnits="userSpaceOnUse">
<stop stop-color="#FF0303"/>
<stop offset="1" stop-color="#020D19"/>
</linearGradient>
<clipPath id="clip0_10_22">
<rect width="30" height="30" fill="white"/>
</clipPath>
</defs>
</svg>
