<svg width="36" height="32" viewBox="0 0 36 32" fill="none" xmlns="http://www.w3.org/2000/svg">
<path d="M5 0H25C26.3261 0 27.5979 0.526784 28.5355 1.46447C29.4732 2.40215 30 3.67392 30 5V25C30 26.3261 29.4732 27.5979 28.5355 28.5355C27.5979 29.4732 26.3261 30 25 30H5C3.67392 30 2.40215 29.4732 1.46447 28.5355C0.526784 27.5979 0 26.3261 0 25L0 5C0 3.67392 0.526784 2.40215 1.46447 1.46447C2.40215 0.526784 3.67392 0 5 0Z" fill="url(#paint0_linear_10_6)"/>
<path d="M14.116 13.766L10.607 12.738C10.3858 12.6729 10.1954 12.5303 10.0708 12.3363C9.94621 12.1423 9.89567 11.9099 9.92847 11.6816C9.96126 11.4534 10.0752 11.2446 10.2494 11.0935C10.4236 10.9424 10.6464 10.8592 10.877 10.859H13.033C13.4294 10.859 13.8167 10.9778 14.145 11.2C14.2422 11.2633 14.3581 11.2914 14.4735 11.2796C14.5889 11.2678 14.6967 11.2167 14.779 11.135L15.91 10.03C15.9643 9.9764 16.0062 9.91165 16.033 9.84024C16.0598 9.76883 16.0708 9.69246 16.0652 9.61639C16.0596 9.54033 16.0375 9.46639 16.0005 9.39968C15.9636 9.33297 15.9125 9.27508 15.851 9.23001C15.0476 8.60238 14.0585 8.25942 13.039 8.25501V6.69801C13.0385 6.55974 12.9831 6.42733 12.8851 6.32984C12.787 6.23235 12.6543 6.17774 12.516 6.17801H11.479C11.3413 6.17854 11.2093 6.23349 11.1119 6.3309C11.0145 6.4283 10.9595 6.56026 10.959 6.69801V8.25801H10.877C10.382 8.25856 9.89255 8.36228 9.43987 8.56254C8.98719 8.76281 8.58121 9.05523 8.24785 9.42115C7.91448 9.78707 7.66105 10.2185 7.5037 10.6878C7.34636 11.1571 7.28857 11.6541 7.33401 12.147C7.4242 12.882 7.73157 13.5734 8.21681 14.1327C8.70206 14.6921 9.34312 15.094 10.058 15.287L13.39 16.262C13.6112 16.3271 13.8016 16.4697 13.9262 16.6637C14.0508 16.8577 14.1014 17.0902 14.0686 17.3184C14.0358 17.5467 13.9218 17.7554 13.7476 17.9065C13.5734 18.0576 13.3506 18.1408 13.12 18.141H10.965C10.5686 18.141 10.1813 18.0222 9.85301 17.8C9.75584 17.7367 9.6399 17.7086 9.52452 17.7204C9.40915 17.7323 9.30131 17.7833 9.21901 17.865L8.08801 18.971C8.03376 19.0246 7.99179 19.0894 7.965 19.1608C7.93822 19.2322 7.92725 19.3086 7.93286 19.3846C7.93847 19.4607 7.96052 19.5346 7.9975 19.6013C8.03447 19.6681 8.08548 19.7259 8.14701 19.771C8.9504 20.3986 9.93953 20.7416 10.959 20.746V22.306C10.9595 22.4438 11.0145 22.5757 11.1119 22.6731C11.2093 22.7705 11.3413 22.8255 11.479 22.826H12.516C12.6538 22.8255 12.7857 22.7705 12.8831 22.6731C12.9805 22.5757 13.0355 22.4438 13.036 22.306V20.736C13.7808 20.7371 14.5083 20.5116 15.122 20.0896C15.7357 19.6675 16.2065 19.0689 16.472 18.373C16.6325 17.9164 16.6984 17.4319 16.6658 16.9491C16.6332 16.4662 16.5027 15.995 16.2824 15.5641C16.062 15.1332 15.7563 14.7516 15.3839 14.4425C15.0115 14.1334 14.5801 13.9032 14.116 13.766Z" fill="white"/>
<g filter="url(#filter0_d_10_6)">
<path d="M22.009 12.262L21.05 14.212L18.898 14.526C18.8119 14.5395 18.7312 14.5765 18.6649 14.6329C18.5986 14.6894 18.5491 14.7631 18.5221 14.846C18.4951 14.9288 18.4915 15.0175 18.5118 15.1022C18.5321 15.1869 18.5754 15.2644 18.637 15.326L20.191 16.847L19.823 18.991C19.8073 19.078 19.8163 19.1676 19.8491 19.2497C19.8819 19.3317 19.9372 19.4029 20.0085 19.4551C20.0799 19.5072 20.1644 19.5382 20.2526 19.5446C20.3407 19.551 20.4289 19.5324 20.507 19.491L22.432 18.475L24.357 19.487C24.4351 19.5284 24.5232 19.547 24.6114 19.5406C24.6995 19.5342 24.7841 19.5032 24.8555 19.4511C24.9268 19.3989 24.982 19.3277 25.0148 19.2457C25.0477 19.1636 25.0567 19.074 25.041 18.987L24.673 16.847L26.23 15.33C26.2916 15.2684 26.3349 15.1909 26.3552 15.1062C26.3755 15.0215 26.3719 14.9328 26.3449 14.85C26.3178 14.7671 26.2684 14.6934 26.2021 14.6369C26.1357 14.5805 26.0551 14.5435 25.969 14.53L23.817 14.212L22.85 12.262C22.811 12.1832 22.7507 12.1168 22.6759 12.0704C22.6012 12.024 22.515 11.9994 22.427 11.9994C22.339 11.9994 22.2528 12.024 22.1781 12.0704C22.1033 12.1168 22.043 12.1832 22.004 12.262H22.009Z" fill="#F1FF2D"/>
</g>
<defs>
<filter id="filter0_d_10_6" x="12.4988" y="8.99942" width="19.8693" height="19.5464" filterUnits="userSpaceOnUse" color-interpolation-filters="sRGB">
<feFlood flood-opacity="0" result="BackgroundImageFix"/>
<feColorMatrix in="SourceAlpha" type="matrix" values="0 0 0 0 0 0 0 0 0 0 0 0 0 0 0 0 0 0 127 0" result="hardAlpha"/>
<feOffset dy="3"/>
<feGaussianBlur stdDeviation="3"/>
<feColorMatrix type="matrix" values="0 0 0 0 0 0 0 0 0 0 0 0 0 0 0 0 0 0 0.161 0"/>
<feBlend mode="normal" in2="BackgroundImageFix" result="effect1_dropShadow_10_6"/>
<feBlend mode="normal" in="SourceGraphic" in2="effect1_dropShadow_10_6" result="shape"/>
</filter>
<linearGradient id="paint0_linear_10_6" x1="2.4" y1="0.990001" x2="26.91" y2="27.93" gradientUnits="userSpaceOnUse">
<stop stop-color="#D06992"/>
<stop offset="1" stop-color="#17030B"/>
</linearGradient>
</defs>
</svg>
