<svg width="30" height="30" viewBox="0 0 30 30" fill="none" xmlns="http://www.w3.org/2000/svg">
<g clip-path="url(#clip0_10_17)">
<path d="M25 0H5C2.23858 0 0 2.23858 0 5V25C0 27.7614 2.23858 30 5 30H25C27.7614 30 30 27.7614 30 25V5C30 2.23858 27.7614 0 25 0Z" fill="url(#paint0_linear_10_17)"/>
<path d="M22.16 10.061L19.986 20.309C19.822 21.032 19.394 21.209 18.786 20.872L15.476 18.433L13.876 19.97C13.7978 20.0718 13.697 20.1541 13.5816 20.2105C13.4663 20.2669 13.3394 20.2958 13.211 20.295L13.449 16.923L19.586 11.378C19.853 11.14 19.528 11.008 19.171 11.246L11.587 16.021L8.32001 14.998C7.61001 14.776 7.59701 14.288 8.46801 13.947L21.243 9.025C21.835 8.803 22.352 9.157 22.159 10.06L22.16 10.061Z" fill="white"/>
</g>
<defs>
<linearGradient id="paint0_linear_10_17" x1="3.69" y1="1.53" x2="25.95" y2="27.06" gradientUnits="userSpaceOnUse">
<stop stop-color="#00ACEE"/>
<stop offset="1" stop-color="#102933"/>
</linearGradient>
<clipPath id="clip0_10_17">
<rect width="30" height="30" fill="white"/>
</clipPath>
</defs>
</svg>
